<?xml version="1.0" encoding="utf-8"?>
<!-- Generator: Adobe Illustrator 28.0.0, SVG Export Plug-In . SVG Version: 6.00 Build 0)  -->
<svg version="1.1" id="Calque_1" xmlns="http://www.w3.org/2000/svg" xmlns:xlink="http://www.w3.org/1999/xlink" x="0px" y="0px"
	 viewBox="0 0 500 500" style="enable-background:new 0 0 500 500;" xml:space="preserve">
<style type="text/css">
	.st0{fill:#242651;}
</style>
<path class="st0" d="M127.17,383.46h327.3v79.11H27.4V23.96h99.77V383.46z"/>
<path class="st0" d="M377.41,139.15c-6.93-12.7-16.45-22.36-28.57-29.01c-12.12-6.63-26.27-9.96-42.42-9.96
	c-17.9,0-33.77,4.04-47.62,12.12c-13.85,8.08-24.67,19.63-32.47,34.63c-7.79,15.01-11.69,32.32-11.69,51.95
	c0,20.21,3.96,37.81,11.9,52.81c7.93,15.01,18.97,26.56,33.12,34.63c14.14,8.08,30.59,12.12,49.35,12.12
	c23.09,0,41.99-6.13,56.71-18.4c14.72-12.26,24.38-29.36,29-51.3h-103.9v-46.32h163.64v52.81c-4.05,21.07-12.7,40.55-25.97,58.44
	c-13.28,17.9-30.38,32.25-51.3,43.07C356.27,347.59,332.82,353,306.85,353c-29.15,0-55.49-6.56-79.01-19.7
	c-23.52-13.13-41.99-31.39-55.41-54.76c-13.42-23.38-20.13-49.93-20.13-79.66c0-29.72,6.71-56.35,20.13-79.87
	c13.42-23.52,31.89-41.84,55.41-54.98c23.52-13.13,49.71-19.7,78.57-19.7c34.05,0,63.64,8.3,88.75,24.89
	c25.11,16.6,42.42,39.9,51.95,69.91H377.41z"/>
</svg>
